# xmcd
#
# Track frame offsets:
#	150
#	20354
#	44107
#	72881
#	97445
#	128991
#	151891
#	174761
#	197431
#	218477
#	230404
#	260167
#
# Disc length: 3696 seconds
#
# Revision: 1
# Processed by: cddbd v1.5.2PL0 Copyright (c) Steve Scherf et al.
# Submitted via: audiograbber 1.83.01
#
DISCID=a70e6e0c
DTITLE=Roy Rogers - Live! at the Sierra Nevada Brewry Big Room
DYEAR=2001
DGENRE=Blues
TTITLE0=Ever Since I Lost You
TTITLE1=Down Home Girl
TTITLE2=Mellow Apples
TTITLE3=Built for Comfort
TTITLE4=Terraplane Blues
TTITLE5=I'm A Stranger Here
TTITLE6=Gertie Ruth
TTITLE7=Down In Mississippi
TTITLE8=Vida's Place
TTITLE9=Duck Walk
TTITLE10=Shake Your Money Maker
TTITLE11=For the Children
EXTD=
EXTT0=
EXTT1=
EXTT2=
EXTT3=
EXTT4=
EXTT5=
EXTT6=
EXTT7=
EXTT8=
EXTT9=
EXTT10=
EXTT11=
PLAYORDER=
